# Blender 4.3.0
# www.blender.org
mtllib lilypad.mtl
o Cylinder
v 0.382683 -0.047875 -0.923880
v 0.382683 0.047875 -0.923880
v 0.555570 -0.047875 -0.831470
v 0.555570 0.047875 -0.831470
v 0.707107 -0.047875 -0.707107
v 0.707107 0.047875 -0.707107
v 0.831470 -0.047875 -0.555570
v 0.831470 0.047875 -0.555570
v 0.923880 -0.047875 -0.382683
v 0.923880 0.047875 -0.382683
v 0.980785 -0.047875 -0.195090
v 0.980785 0.047875 -0.195090
v 1.000000 -0.047875 0.000000
v 1.000000 0.047875 0.000000
v 0.980785 -0.047875 0.195090
v 0.980785 0.047875 0.195090
v 0.923880 -0.047875 0.382683
v 0.923880 0.047875 0.382683
v 0.831470 -0.047875 0.555570
v 0.831470 0.047875 0.555570
v 0.707107 -0.047875 0.707107
v 0.707107 0.047875 0.707107
v 0.555570 -0.047875 0.831470
v 0.555570 0.047875 0.831470
v 0.382683 -0.047875 0.923880
v 0.382683 0.047875 0.923880
v 0.195090 -0.047875 0.980785
v 0.195090 0.047875 0.980785
v 0.000000 -0.047875 1.000000
v 0.000000 0.047875 1.000000
v -0.195090 -0.047875 0.980785
v -0.195090 0.047875 0.980785
v -0.382683 -0.047875 0.923880
v -0.382683 0.047875 0.923880
v -0.555570 -0.047875 0.831470
v -0.555570 0.047875 0.831470
v -0.707107 -0.047875 0.707107
v -0.707107 0.047875 0.707107
v -0.831470 -0.047875 0.555570
v -0.831470 0.047875 0.555570
v -0.923880 -0.047875 0.382683
v -0.923880 0.047875 0.382683
v -0.980785 -0.047875 0.195090
v -0.980785 0.047875 0.195090
v -1.000000 -0.047875 0.000000
v -1.000000 0.047875 0.000000
v -0.980785 -0.047875 -0.195090
v -0.980785 0.047875 -0.195090
v -0.923880 -0.047875 -0.382683
v -0.923880 0.047875 -0.382683
v -0.831470 -0.047875 -0.555570
v -0.831470 0.047875 -0.555570
v -0.707107 -0.047875 -0.707107
v -0.707107 0.047875 -0.707107
v -0.555570 -0.047875 -0.831470
v -0.555570 0.047875 -0.831470
v -0.382683 -0.047875 -0.923880
v -0.382683 0.047875 -0.923880
v -0.195090 -0.047875 -0.980785
v -0.195090 0.047875 -0.980785
v 0.000006 -0.047875 0.000028
v 0.000006 -0.047875 0.000028
v 0.000015 0.047875 -0.000036
v 0.000015 0.047875 -0.000037
vn 0.4714 -0.0000 -0.8819
vn 0.6344 -0.0000 -0.7730
vn 0.7730 -0.0000 -0.6344
vn 0.8819 -0.0000 -0.4714
vn 0.9569 -0.0000 -0.2903
vn 0.9952 -0.0000 -0.0980
vn 0.9952 -0.0000 0.0980
vn 0.9569 -0.0000 0.2903
vn 0.8819 -0.0000 0.4714
vn 0.7730 -0.0000 0.6344
vn 0.6344 -0.0000 0.7730
vn 0.4714 -0.0000 0.8819
vn 0.2903 -0.0000 0.9569
vn 0.0980 -0.0000 0.9952
vn -0.0980 -0.0000 0.9952
vn -0.2903 -0.0000 0.9569
vn -0.4714 -0.0000 0.8819
vn -0.6344 -0.0000 0.7730
vn -0.7730 -0.0000 0.6344
vn -0.8819 -0.0000 0.4714
vn -0.9569 -0.0000 0.2903
vn -0.9952 -0.0000 0.0980
vn -0.9952 -0.0000 -0.0980
vn -0.9569 -0.0000 -0.2903
vn -0.8819 -0.0000 -0.4714
vn -0.7730 -0.0000 -0.6344
vn -0.6344 -0.0000 -0.7730
vn -0.4714 -0.0000 -0.8819
vn -0.2903 -0.0000 -0.9569
vn -0.0000 -1.0000 -0.0000
vn 1.0000 -0.0003 -0.0000
vn -1.0000 -0.0000 -0.0000
vn -0.0000 1.0000 -0.0000
vn -0.9239 -0.0000 -0.3827
vn 0.9808 -0.0000 -0.1951
vn -0.9239 -0.0002 -0.3827
vn 0.9808 -0.0002 -0.1951
vt 0.937500 1.000000
vt 0.906250 0.500000
vt 0.937500 0.500000
vt 0.906250 1.000000
vt 0.875000 0.500000
vt 0.875000 1.000000
vt 0.843750 0.500000
vt 0.843750 1.000000
vt 0.812500 0.500000
vt 0.812500 1.000000
vt 0.781250 0.500000
vt 0.781250 1.000000
vt 0.750000 0.500000
vt 0.750000 1.000000
vt 0.718750 0.500000
vt 0.718750 1.000000
vt 0.687500 0.500000
vt 0.687500 1.000000
vt 0.656250 0.500000
vt 0.656250 1.000000
vt 0.625000 0.500000
vt 0.625000 1.000000
vt 0.593750 0.500000
vt 0.593750 1.000000
vt 0.562500 0.500000
vt 0.562500 1.000000
vt 0.531250 0.500000
vt 0.531250 1.000000
vt 0.500000 0.500000
vt 0.500000 1.000000
vt 0.468750 0.500000
vt 0.468750 1.000000
vt 0.437500 0.500000
vt 0.437500 1.000000
vt 0.406250 0.500000
vt 0.406250 1.000000
vt 0.375000 0.500000
vt 0.375000 1.000000
vt 0.343750 0.500000
vt 0.343750 1.000000
vt 0.312500 0.500000
vt 0.312500 1.000000
vt 0.281250 0.500000
vt 0.281250 1.000000
vt 0.250000 0.500000
vt 0.250000 1.000000
vt 0.218750 0.500000
vt 0.218750 1.000000
vt 0.187500 0.500000
vt 0.187500 1.000000
vt 0.156250 0.500000
vt 0.156250 1.000000
vt 0.125000 0.500000
vt 0.125000 1.000000
vt 0.093750 0.500000
vt 0.093750 1.000000
vt 0.062500 0.500000
vt 0.062500 1.000000
vt 0.031250 0.500000
vt 0.550447 0.116663
vt 0.514612 0.296822
vt 0.616663 0.449553
vt 0.750001 0.249993
vt 0.750000 0.010000
vt 0.703178 0.014612
vt 0.949553 0.383337
vt 0.985388 0.203178
vt 0.883337 0.050447
vt 0.796822 0.014612
vt 0.750001 0.249993
vt 0.703178 0.485388
vt 0.250004 0.250009
vt 0.250004 0.250009
vt 0.158156 0.028269
vt 0.471731 0.158156
vt 0.471731 0.341844
vt 0.341844 0.471731
vt 0.028269 0.341844
vt 0.028269 0.158156
vt 0.841844 0.471731
vt 0.203178 0.485388
vt 0.031250 1.000000
vt 0.658156 0.471731
vt 0.658156 0.028269
vt 0.616663 0.050447
vt 0.580294 0.080294
vt 0.528269 0.158156
vt 0.514612 0.203178
vt 0.510000 0.250000
vt 0.528269 0.341844
vt 0.550447 0.383337
vt 0.580294 0.419706
vt 0.841844 0.028269
vt 0.883337 0.449553
vt 0.919706 0.419706
vt 0.971731 0.341844
vt 0.985388 0.296822
vt 0.990000 0.250000
vt 0.971731 0.158156
vt 0.949553 0.116663
vt 0.919706 0.080294
vt 0.203178 0.014612
vt 0.250000 0.010000
vt 0.296822 0.014612
vt 0.341844 0.028269
vt 0.383337 0.050447
vt 0.419706 0.080294
vt 0.449553 0.116663
vt 0.485388 0.203178
vt 0.490000 0.250000
vt 0.485388 0.296822
vt 0.449553 0.383337
vt 0.419706 0.419706
vt 0.383337 0.449553
vt 0.158156 0.471731
vt 0.116663 0.449553
vt 0.080294 0.419706
vt 0.050447 0.383337
vt 0.014612 0.296822
vt 0.010000 0.250000
vt 0.014612 0.203178
vt 0.050447 0.116663
vt 0.080294 0.080294
vt 0.116663 0.050447
s 0
f 2/1/1 3/2/1 1/3/1
f 4/4/2 5/5/2 3/2/2
f 6/6/3 7/7/3 5/5/3
f 8/8/4 9/9/4 7/7/4
f 10/10/5 11/11/5 9/9/5
f 12/12/6 13/13/6 11/11/6
f 14/14/7 15/15/7 13/13/7
f 16/16/8 17/17/8 15/15/8
f 18/18/9 19/19/9 17/17/9
f 20/20/10 21/21/10 19/19/10
f 22/22/11 23/23/11 21/21/11
f 24/24/12 25/25/12 23/23/12
f 26/26/13 27/27/13 25/25/13
f 28/28/14 29/29/14 27/27/14
f 30/30/15 31/31/15 29/29/15
f 32/32/16 33/33/16 31/31/16
f 34/34/17 35/35/17 33/33/17
f 36/36/18 37/37/18 35/35/18
f 38/38/19 39/39/19 37/37/19
f 40/40/20 41/41/20 39/39/20
f 42/42/21 43/43/21 41/41/21
f 44/44/22 45/45/22 43/43/22
f 46/46/23 47/47/23 45/45/23
f 48/48/24 49/49/24 47/47/24
f 50/50/25 51/51/25 49/49/25
f 52/52/26 53/53/26 51/51/26
f 54/54/27 55/55/27 53/53/27
f 56/56/28 57/57/28 55/55/28
f 58/58/29 59/59/29 57/57/29
f 39/60/30 47/61/30 55/62/30
f 61/63/30 29/64/30 31/65/30
f 7/66/30 15/67/30 23/68/30
f 27/69/31 61/63/31 62/70/31
f 61/63/32 59/71/32 62/70/32
f 63/72/33 64/73/33 34/74/33
f 18/75/33 10/76/33 2/77/33
f 50/78/33 42/79/33 34/74/33
f 1/80/34 63/72/34 2/77/34
f 64/73/35 59/71/35 60/81/35
f 2/1/1 4/4/1 3/2/1
f 4/4/2 6/6/2 5/5/2
f 6/6/3 8/8/3 7/7/3
f 8/8/4 10/10/4 9/9/4
f 10/10/5 12/12/5 11/11/5
f 12/12/6 14/14/6 13/13/6
f 14/14/7 16/16/7 15/15/7
f 16/16/8 18/18/8 17/17/8
f 18/18/9 20/20/9 19/19/9
f 20/20/10 22/22/10 21/21/10
f 22/22/11 24/24/11 23/23/11
f 24/24/12 26/26/12 25/25/12
f 26/26/13 28/28/13 27/27/13
f 28/28/14 30/30/14 29/29/14
f 30/30/15 32/32/15 31/31/15
f 32/32/16 34/34/16 33/33/16
f 34/34/17 36/36/17 35/35/17
f 36/36/18 38/38/18 37/37/18
f 38/38/19 40/40/19 39/39/19
f 40/40/20 42/42/20 41/41/20
f 42/42/21 44/44/21 43/43/21
f 44/44/22 46/46/22 45/45/22
f 46/46/23 48/48/23 47/47/23
f 48/48/24 50/50/24 49/49/24
f 50/50/25 52/52/25 51/51/25
f 52/52/26 54/54/26 53/53/26
f 54/54/27 56/56/27 55/55/27
f 56/56/28 58/58/28 57/57/28
f 58/58/29 60/82/29 59/59/29
f 57/83/30 59/71/30 61/63/30
f 61/63/30 33/84/30 35/85/30
f 35/85/30 37/86/30 39/60/30
f 39/60/30 41/87/30 43/88/30
f 43/88/30 45/89/30 47/61/30
f 47/61/30 49/90/30 51/91/30
f 51/91/30 53/92/30 55/62/30
f 55/62/30 57/83/30 61/63/30
f 61/63/30 35/85/30 39/60/30
f 39/60/30 43/88/30 47/61/30
f 47/61/30 51/91/30 55/62/30
f 55/62/30 61/63/30 39/60/30
f 31/65/30 33/84/30 61/63/30
f 61/63/30 27/69/30 29/64/30
f 25/93/30 27/69/30 62/70/30
f 62/70/30 1/80/30 3/94/30
f 3/94/30 5/95/30 7/66/30
f 7/66/30 9/96/30 11/97/30
f 11/97/30 13/98/30 15/67/30
f 15/67/30 17/99/30 19/100/30
f 19/100/30 21/101/30 23/68/30
f 23/68/30 25/93/30 62/70/30
f 62/70/30 3/94/30 7/66/30
f 7/66/30 11/97/30 15/67/30
f 15/67/30 19/100/30 23/68/30
f 23/68/30 62/70/30 7/66/30
f 34/74/33 32/102/33 30/103/33
f 30/103/33 28/104/33 63/72/33
f 34/74/33 30/103/33 63/72/33
f 63/72/33 28/104/33 26/105/33
f 26/105/33 24/106/33 22/107/33
f 22/107/33 20/108/33 18/75/33
f 18/75/33 16/109/33 14/110/33
f 14/110/33 12/111/33 10/76/33
f 10/76/33 8/112/33 6/113/33
f 6/113/33 4/114/33 2/77/33
f 2/77/33 63/72/33 26/105/33
f 26/105/33 22/107/33 18/75/33
f 18/75/33 14/110/33 10/76/33
f 10/76/33 6/113/33 2/77/33
f 2/77/33 26/105/33 18/75/33
f 64/73/33 60/81/33 58/115/33
f 58/115/33 56/116/33 54/117/33
f 54/117/33 52/118/33 50/78/33
f 50/78/33 48/119/33 46/120/33
f 46/120/33 44/121/33 42/79/33
f 42/79/33 40/122/33 38/123/33
f 38/123/33 36/124/33 34/74/33
f 34/74/33 64/73/33 58/115/33
f 58/115/33 54/117/33 50/78/33
f 50/78/33 46/120/33 42/79/33
f 42/79/33 38/123/33 34/74/33
f 34/74/33 58/115/33 50/78/33
f 1/80/36 62/70/36 63/72/36
f 64/73/37 62/70/37 59/71/37
