# Blender 4.3.0
# www.blender.org
mtllib reeds.mtl
o stem
v 0.027681 -0.111574 -0.041427
v 0.027681 3.463868 -0.343162
v 0.048866 -0.111574 -0.009720
v 0.048866 3.490774 -0.326387
v 0.041427 -0.111574 0.027681
v 0.041427 3.522512 -0.306601
v 0.009720 -0.111574 0.048866
v 0.009720 3.540490 -0.295392
v -0.027681 -0.111574 0.041427
v -0.027681 3.534177 -0.299328
v -0.048866 -0.111574 0.009720
v -0.048866 3.507271 -0.316102
v -0.041427 -0.111574 -0.027681
v -0.041427 3.475533 -0.335889
v -0.009720 -0.111574 -0.048866
v -0.009720 3.457555 -0.347097
v 0.000002 -0.111574 0.000010
v 0.000002 -0.111574 0.000010
v -0.000000 3.499020 -0.321246
v -0.000000 3.499020 -0.321246
v 0.027681 1.934578 -0.041427
v 0.048866 1.934578 -0.009720
v 0.041427 1.934578 0.027681
v 0.009720 1.934578 0.048866
v -0.027681 1.934578 0.041427
v -0.048866 1.934578 0.009720
v -0.041427 1.934578 -0.027681
v -0.009720 1.934578 -0.048866
v 0.027681 2.632845 -0.089956
v 0.048866 2.644946 -0.060649
v 0.041427 2.659220 -0.026079
v 0.009720 2.667306 -0.006497
v -0.027681 2.664466 -0.013373
v -0.048866 2.652365 -0.042680
v -0.041427 2.638091 -0.077250
v -0.009720 2.630005 -0.096832
v 0.027681 3.085233 -0.180997
v 0.048866 3.106115 -0.157138
v 0.041427 3.130747 -0.128995
v 0.009720 3.144701 -0.113053
v -0.027681 3.139801 -0.118651
v -0.048866 3.118918 -0.142510
v -0.041427 3.094286 -0.170653
v -0.009720 3.080333 -0.186595
vn -0.0000 1.0000 -0.0000
vn -0.0000 -0.5290 0.8486
vn -0.7754 0.2486 0.5805
vn -0.9722 -0.0943 -0.2143
vn -0.4860 -0.3609 -0.7960
vn 0.1874 -0.4110 -0.8922
vn 0.8203 -0.2382 -0.5199
vn 0.5369 0.3355 0.7741
vn 0.9790 0.0831 0.1860
vn -0.1859 0.3868 0.9032
vn -0.0000 -0.5291 0.8486
vn -0.1951 -0.0000 0.9808
vn 0.9808 -0.0000 0.1951
vn 0.5556 -0.0000 0.8315
vn 0.8315 -0.0000 -0.5556
vn 0.1951 -0.0000 -0.9808
vn -0.5556 -0.0000 -0.8315
vn -0.9808 -0.0000 -0.1951
vn -0.8315 -0.0000 0.5556
vn -0.1946 0.0680 0.9785
vn 0.9807 0.0142 0.1951
vn 0.5546 0.0585 0.8300
vn 0.8307 -0.0417 -0.5551
vn 0.1946 -0.0739 -0.9781
vn -0.5359 -0.0625 -0.8420
vn -0.9787 -0.0147 -0.2046
vn -0.8175 0.0399 0.5745
vn -0.1916 0.1936 0.9622
vn 0.9802 0.0415 0.1938
vn 0.5486 0.1677 0.8191
vn 0.8275 -0.1214 -0.5481
vn 0.1923 -0.2138 -0.9578
vn -0.5050 -0.1841 -0.8433
vn -0.9749 -0.0456 -0.2178
vn -0.7923 0.1204 0.5982
vn -0.8191 0.2310 0.5251
vn -0.9791 -0.0840 -0.1853
vn -0.5395 -0.3523 -0.7647
vn 0.1637 -0.4109 -0.8969
vn 0.7787 -0.2560 -0.5728
vn 0.4801 0.3434 0.8072
vn 0.9720 0.0934 0.2156
vn -0.1608 0.3864 0.9082
vn -0.1854 0.0676 0.9803
vn 0.9787 0.0144 0.2047
vn 0.5353 0.0581 0.8427
vn 0.8178 -0.0419 -0.5739
vn 0.1857 -0.0736 -0.9798
vn -0.5545 -0.0627 -0.8298
vn -0.9807 -0.0145 -0.1951
vn -0.8308 0.0398 0.5551
vn -0.1699 0.1926 0.9664
vn 0.9748 0.0447 0.2185
vn 0.5011 0.1692 0.8487
vn 0.7943 -0.1271 -0.5941
vn 0.1719 -0.2130 -0.9618
vn -0.5499 -0.1820 -0.8152
vn -0.9802 -0.0422 -0.1935
vn -0.8270 0.1151 0.5503
vt 0.000000 0.000000
s 0
f 13/1/1 11/1/1 18/1/1
f 2/1/2 20/1/2 16/1/2
f 37/1/3 4/1/3 2/1/3
f 38/1/4 6/1/4 4/1/4
f 39/1/5 8/1/5 6/1/5
f 41/1/6 8/1/6 40/1/6
f 42/1/7 10/1/7 41/1/7
f 44/1/8 14/1/8 43/1/8
f 43/1/9 12/1/9 42/1/9
f 2/1/10 44/1/10 37/1/10
f 20/1/11 2/1/11 4/1/11
f 4/1/2 6/1/2 19/1/2
f 19/1/2 6/1/2 8/1/2
f 8/1/2 10/1/2 20/1/2
f 10/1/2 12/1/2 19/1/2
f 12/1/2 14/1/2 20/1/2
f 14/1/2 16/1/2 19/1/2
f 20/1/1 19/1/1 16/1/1
f 19/1/1 20/1/1 14/1/1
f 12/1/1 20/1/1 19/1/1
f 10/1/1 19/1/1 20/1/1
f 18/1/1 11/1/1 9/1/1
f 9/1/1 7/1/1 17/1/1
f 17/1/1 7/1/1 5/1/1
f 5/1/1 3/1/1 18/1/1
f 3/1/1 1/1/1 17/1/1
f 1/1/1 15/1/1 18/1/1
f 15/1/1 13/1/1 17/1/1
f 17/1/1 18/1/1 15/1/1
f 18/1/1 17/1/1 1/1/1
f 3/1/1 17/1/1 18/1/1
f 5/1/1 18/1/1 17/1/1
f 21/1/12 15/1/12 1/1/12
f 27/1/13 11/1/13 13/1/13
f 28/1/14 13/1/14 15/1/14
f 11/1/15 25/1/15 9/1/15
f 9/1/16 24/1/16 7/1/16
f 7/1/17 23/1/17 5/1/17
f 5/1/18 22/1/18 3/1/18
f 3/1/19 21/1/19 1/1/19
f 29/1/20 28/1/20 21/1/20
f 27/1/21 34/1/21 26/1/21
f 28/1/22 35/1/22 27/1/22
f 26/1/23 33/1/23 25/1/23
f 25/1/24 32/1/24 24/1/24
f 23/1/25 32/1/25 31/1/25
f 22/1/26 31/1/26 30/1/26
f 21/1/27 30/1/27 29/1/27
f 37/1/28 36/1/28 29/1/28
f 35/1/29 42/1/29 34/1/29
f 36/1/30 43/1/30 35/1/30
f 34/1/31 41/1/31 33/1/31
f 33/1/32 40/1/32 32/1/32
f 31/1/33 40/1/33 39/1/33
f 30/1/34 39/1/34 38/1/34
f 29/1/35 38/1/35 37/1/35
f 37/1/36 38/1/36 4/1/36
f 38/1/37 39/1/37 6/1/37
f 39/1/38 40/1/38 8/1/38
f 41/1/39 10/1/39 8/1/39
f 42/1/40 12/1/40 10/1/40
f 44/1/41 16/1/41 14/1/41
f 43/1/42 14/1/42 12/1/42
f 2/1/43 16/1/43 44/1/43
f 20/1/1 4/1/1 19/1/1
f 19/1/1 8/1/1 20/1/1
f 17/1/1 13/1/1 18/1/1
f 18/1/1 9/1/1 17/1/1
f 21/1/12 28/1/12 15/1/12
f 27/1/13 26/1/13 11/1/13
f 28/1/14 27/1/14 13/1/14
f 11/1/15 26/1/15 25/1/15
f 9/1/16 25/1/16 24/1/16
f 7/1/17 24/1/17 23/1/17
f 5/1/18 23/1/18 22/1/18
f 3/1/19 22/1/19 21/1/19
f 29/1/44 36/1/44 28/1/44
f 27/1/45 35/1/45 34/1/45
f 28/1/46 36/1/46 35/1/46
f 26/1/47 34/1/47 33/1/47
f 25/1/48 33/1/48 32/1/48
f 23/1/49 24/1/49 32/1/49
f 22/1/50 23/1/50 31/1/50
f 21/1/51 22/1/51 30/1/51
f 37/1/52 44/1/52 36/1/52
f 35/1/53 43/1/53 42/1/53
f 36/1/54 44/1/54 43/1/54
f 34/1/55 42/1/55 41/1/55
f 33/1/56 41/1/56 40/1/56
f 31/1/57 32/1/57 40/1/57
f 30/1/58 31/1/58 39/1/58
f 29/1/59 30/1/59 38/1/59
o reed.001
v 0.049873 3.361565 -0.332786
v 0.049873 4.118686 -0.753008
v 0.089639 3.390447 -0.280749
v 0.089639 4.147567 -0.700971
v 0.075675 3.424515 -0.219368
v 0.075675 4.181636 -0.639589
v 0.016161 3.443813 -0.184598
v 0.016161 4.200934 -0.604820
v -0.054041 3.437037 -0.196807
v -0.054041 4.194157 -0.617029
v -0.150668 3.466915 -0.268522
v -0.093807 4.165276 -0.669066
v -0.127730 3.410953 -0.369349
v -0.079843 4.131207 -0.730447
v -0.029970 3.379253 -0.426464
v -0.020329 4.111909 -0.765217
v -0.002080 3.399310 -0.264780
v -0.002080 3.399310 -0.264780
v -0.002085 4.156419 -0.685022
v -0.002085 4.156419 -0.685022
v 0.049873 4.118686 -0.753008
v 0.075675 4.181636 -0.639589
v 0.089639 4.147567 -0.700971
v 0.089639 4.147567 -0.700971
v -0.054041 4.194157 -0.617029
v -0.054041 4.194157 -0.617029
v -0.093807 4.165276 -0.669066
v -0.093807 4.165276 -0.669066
v -0.079843 4.131207 -0.730447
v -0.079843 4.131207 -0.730447
v 0.016161 4.200934 -0.604820
v 0.016161 4.200934 -0.604820
v -0.029970 4.029831 -0.787551
v -0.020329 4.111909 -0.765217
v -0.002085 4.156419 -0.685022
v -0.002085 4.156419 -0.685022
v -0.002085 4.156419 -0.685022
v -0.002085 4.156419 -0.685022
v -0.002085 4.156419 -0.685022
v -0.002085 4.156419 -0.685022
v -0.079843 3.374086 -0.310226
v -0.020329 3.354788 -0.344995
v -0.093807 3.408155 -0.248844
v 0.085347 3.390385 -0.406408
v 0.150668 3.437827 -0.320930
v 0.085347 4.040963 -0.767495
v 0.150668 4.088405 -0.682018
v 0.127730 3.493789 -0.220103
v 0.127730 4.144367 -0.581191
v -0.085347 3.514357 -0.183045
v -0.085347 4.164935 -0.544132
v -0.150668 4.117493 -0.629610
v -0.127730 4.061531 -0.730437
v 0.029970 3.525488 -0.162989
v 0.029970 4.176066 -0.524076
v -0.020329 4.111909 -0.765217
vn -0.0000 0.8744 -0.4853
vn -0.0000 -0.8744 0.4853
vn -0.8315 0.2696 0.4858
vn -0.9808 -0.0947 -0.1706
vn -0.5556 -0.4035 -0.7270
vn 0.1951 -0.4760 -0.8576
vn 0.8315 -0.2696 -0.4858
vn 0.5556 0.4035 0.7270
vn 0.9808 0.0947 0.1706
vn -0.1951 0.4760 0.8576
vn 0.4134 0.8844 0.2167
vn 0.7366 0.6484 -0.1923
vn -0.6048 0.7962 0.0203
vn -0.6048 -0.4040 0.6864
vn -0.7134 0.5312 -0.4571
vn -0.7134 -0.6689 0.2090
vn 0.6245 0.3748 -0.6852
vn 0.6245 -0.7798 -0.0444
vn -0.1432 0.9431 0.3002
vn 0.7366 -0.5062 0.4485
vn -0.4079 0.2974 -0.8632
vn -0.4079 -0.8899 -0.2043
vn 0.1452 0.2301 -0.9623
vn -0.1432 -0.2442 0.9591
vn 0.1452 -0.9383 -0.3138
vn 0.4134 -0.2840 0.8652
vt 0.000000 0.000000
s 0
f 85/2/60 87/2/60 62/2/60
f 46/2/61 83/2/61 78/2/61
f 89/2/62 90/2/62 88/2/62
f 92/2/63 91/2/63 89/2/63
f 98/2/64 93/2/64 92/2/64
f 94/2/65 99/2/65 98/2/65
f 55/2/66 95/2/66 94/2/66
f 77/2/67 57/2/67 59/2/67
f 97/2/68 55/2/68 57/2/68
f 90/2/69 59/2/69 88/2/69
f 83/2/61 46/2/61 68/2/61
f 48/2/61 50/2/61 79/2/61
f 79/2/61 50/2/61 76/2/61
f 52/2/61 54/2/61 84/2/61
f 70/2/61 72/2/61 63/2/61
f 56/2/61 74/2/61 64/2/61
f 58/2/61 60/2/61 81/2/61
f 82/2/60 80/2/60 100/2/60
f 80/2/60 82/2/60 73/2/60
f 71/2/60 82/2/60 80/2/60
f 69/2/60 80/2/60 82/2/60
f 62/2/60 87/2/60 53/2/60
f 53/2/60 51/2/60 61/2/60
f 61/2/60 51/2/60 49/2/60
f 49/2/60 47/2/60 62/2/60
f 47/2/60 45/2/60 61/2/60
f 45/2/60 86/2/60 62/2/60
f 86/2/60 85/2/60 61/2/60
f 61/2/60 62/2/60 86/2/60
f 62/2/60 61/2/60 45/2/60
f 47/2/60 61/2/60 62/2/60
f 49/2/60 62/2/60 61/2/60
f 68/2/60 65/2/60 67/2/60
f 50/2/60 67/2/60 66/2/60
f 72/2/60 69/2/60 71/2/60
f 74/2/60 71/2/60 73/2/60
f 76/2/60 66/2/60 75/2/60
f 46/2/60 100/2/60 65/2/60
f 54/2/60 75/2/60 69/2/60
f 60/2/60 73/2/60 100/2/60
f 79/2/60 75/2/60 80/2/60
f 78/2/60 82/2/60 100/2/60
f 81/2/60 100/2/60 80/2/60
f 52/2/60 82/2/60 75/2/60
f 64/2/60 73/2/60 82/2/60
f 58/2/60 80/2/60 73/2/60
f 63/2/60 71/2/60 80/2/60
f 83/2/60 67/2/60 82/2/60
f 48/2/60 80/2/60 67/2/60
f 56/2/60 82/2/60 71/2/60
f 84/2/60 69/2/60 82/2/60
f 70/2/60 80/2/60 69/2/60
f 57/2/70 86/2/70 59/2/70
f 55/2/71 85/2/71 57/2/71
f 88/2/72 47/2/72 89/2/72
f 90/2/73 67/2/73 65/2/73
f 92/2/74 47/2/74 49/2/74
f 93/2/75 67/2/75 91/2/75
f 55/2/76 53/2/76 87/2/76
f 96/2/77 69/2/77 95/2/77
f 59/2/78 45/2/78 88/2/78
f 96/2/79 73/2/79 71/2/79
f 98/2/80 49/2/80 51/2/80
f 99/2/81 66/2/81 93/2/81
f 94/2/82 51/2/82 53/2/82
f 77/2/83 65/2/83 100/2/83
f 95/2/84 75/2/84 99/2/84
f 97/2/85 100/2/85 73/2/85
f 89/2/62 91/2/62 90/2/62
f 92/2/63 93/2/63 91/2/63
f 98/2/64 99/2/64 93/2/64
f 94/2/65 95/2/65 99/2/65
f 55/2/66 96/2/66 95/2/66
f 77/2/67 97/2/67 57/2/67
f 97/2/68 96/2/68 55/2/68
f 90/2/69 77/2/69 59/2/69
f 82/2/60 67/2/60 80/2/60
f 80/2/60 75/2/60 82/2/60
f 61/2/60 85/2/60 62/2/60
f 62/2/60 53/2/60 61/2/60
f 68/2/60 46/2/60 65/2/60
f 50/2/60 48/2/60 67/2/60
f 72/2/60 70/2/60 69/2/60
f 74/2/60 56/2/60 71/2/60
f 76/2/60 50/2/60 66/2/60
f 46/2/60 78/2/60 100/2/60
f 54/2/60 52/2/60 75/2/60
f 60/2/60 58/2/60 73/2/60
f 79/2/60 76/2/60 75/2/60
f 78/2/60 83/2/60 82/2/60
f 81/2/60 60/2/60 100/2/60
f 52/2/60 84/2/60 82/2/60
f 64/2/60 74/2/60 73/2/60
f 58/2/60 81/2/60 80/2/60
f 63/2/60 72/2/60 71/2/60
f 83/2/60 68/2/60 67/2/60
f 48/2/60 79/2/60 80/2/60
f 56/2/60 64/2/60 82/2/60
f 84/2/60 54/2/60 69/2/60
f 70/2/60 63/2/60 80/2/60
f 57/2/70 85/2/70 86/2/70
f 55/2/71 87/2/71 85/2/71
f 88/2/72 45/2/72 47/2/72
f 90/2/73 91/2/73 67/2/73
f 92/2/74 89/2/74 47/2/74
f 93/2/75 66/2/75 67/2/75
f 55/2/76 94/2/76 53/2/76
f 96/2/77 71/2/77 69/2/77
f 59/2/78 86/2/78 45/2/78
f 96/2/79 97/2/79 73/2/79
f 98/2/80 92/2/80 49/2/80
f 99/2/81 75/2/81 66/2/81
f 94/2/82 98/2/82 51/2/82
f 77/2/83 90/2/83 65/2/83
f 95/2/84 69/2/84 75/2/84
f 97/2/85 77/2/85 100/2/85
o stem.001
v 0.239579 -0.111574 -0.315848
v 0.748652 3.068905 -1.101418
v 0.240115 -0.111574 -0.277718
v 0.766656 3.100609 -1.090244
v 0.213532 -0.111574 -0.250377
v 0.760679 3.138006 -1.094700
v 0.175402 -0.111574 -0.249841
v 0.734221 3.159190 -1.112175
v 0.148062 -0.111574 -0.276424
v 0.702782 3.151752 -1.132433
v 0.147525 -0.111574 -0.314553
v 0.684777 3.120048 -1.143607
v 0.174108 -0.111574 -0.341894
v 0.690755 3.082650 -1.139151
v 0.212238 -0.111574 -0.342430
v 0.717212 3.061466 -1.121675
v 0.193816 -0.111574 -0.296126
v 0.193816 -0.111574 -0.296126
v 0.725716 3.110326 -1.116926
v 0.725716 3.110326 -1.116926
v 0.212754 1.406481 -0.274454
v 0.213290 1.406481 -0.236324
v 0.186708 1.406481 -0.208983
v 0.148578 1.406481 -0.208447
v 0.121237 1.406481 -0.235030
v 0.120701 1.406481 -0.273160
v 0.147284 1.406481 -0.300501
v 0.185413 1.406481 -0.301037
v 0.262000 2.213195 -0.350446
v 0.266688 2.233831 -0.318724
v 0.245003 2.258174 -0.298941
v 0.209647 2.271963 -0.302686
v 0.181332 2.267121 -0.327765
v 0.176644 2.246484 -0.359488
v 0.198329 2.222142 -0.379271
v 0.233685 2.208353 -0.375526
v 0.452763 2.754629 -0.644820
v 0.462234 2.782413 -0.620479
v 0.446191 2.815186 -0.609402
v 0.414032 2.833751 -0.618080
v 0.384595 2.827232 -0.641427
v 0.375123 2.799448 -0.665768
v 0.391166 2.766674 -0.676844
v 0.423325 2.748109 -0.668167
vn -0.0000 1.0000 -0.0000
vn -0.5438 0.0131 0.8391
vn -0.8295 0.5315 -0.1717
vn -0.7574 -0.1953 -0.6231
vn -0.1912 -0.7556 -0.6265
vn 0.4217 -0.8584 -0.2921
vn 0.8443 -0.4858 0.2260
vn 0.2412 0.7213 0.6493
vn 0.7710 0.1700 0.6137
vn -0.4305 0.8493 0.3056
vn -0.6967 -0.0319 0.7166
vn 0.7170 -0.0063 0.6971
vn 0.0141 -0.0270 0.9995
vn 0.9997 0.0180 -0.0141
vn 0.6967 0.0319 -0.7166
vn -0.0141 0.0270 -0.9995
vn -0.7170 0.0063 -0.6971
vn -0.9997 -0.0180 0.0141
vn -0.6929 0.1094 0.7127
vn 0.7168 0.0239 0.6969
vn 0.0140 0.0952 0.9954
vn 0.9974 -0.0712 -0.0140
vn 0.6915 -0.1262 -0.7112
vn 0.0625 -0.1091 -0.9921
vn -0.6904 -0.0274 -0.7230
vn -0.9924 0.0701 0.1011
vn -0.6101 0.5335 0.5858
vn 0.7336 0.1083 0.6709
vn 0.0835 0.4549 0.8866
vn 0.9488 -0.3099 0.0614
vn 0.6060 -0.5455 -0.5789
vn -0.0378 -0.4761 -0.8786
vn -0.7188 -0.1204 -0.6847
vn -0.9444 0.3286 -0.0076
vn -0.8471 0.4830 -0.2217
vn -0.7714 -0.1703 -0.6132
vn -0.2475 -0.7277 -0.6397
vn 0.4027 -0.8617 -0.3086
vn 0.8272 -0.5327 0.1786
vn 0.1809 0.7504 0.6357
vn 0.7567 0.1953 0.6239
vn -0.4102 0.8527 0.3234
vn -0.6695 0.1086 0.7349
vn 0.6899 0.0267 0.7234
vn -0.0676 0.0963 0.9931
vn 0.9924 -0.0761 -0.0972
vn 0.6697 -0.1256 -0.7319
vn -0.0140 -0.1073 -0.9941
vn -0.7168 -0.0245 -0.6969
vn -0.9977 0.0658 0.0140
vn -0.5947 0.5345 0.6005
vn 0.7184 0.1201 0.6852
vn 0.0317 0.4678 0.8833
vn 0.9432 -0.3320 0.0119
vn 0.5913 -0.5466 -0.5929
vn -0.0873 -0.4633 -0.8819
vn -0.7338 -0.1087 -0.6706
vn -0.9501 0.3063 -0.0588
vt 0.000000 0.000000
s 0
f 113/3/86 111/3/86 118/3/86
f 102/3/87 120/3/87 116/3/87
f 137/3/88 104/3/88 102/3/88
f 138/3/89 106/3/89 104/3/89
f 139/3/90 108/3/90 106/3/90
f 141/3/91 108/3/91 140/3/91
f 142/3/92 110/3/92 141/3/92
f 144/3/93 114/3/93 143/3/93
f 143/3/94 112/3/94 142/3/94
f 102/3/95 144/3/95 137/3/95
f 120/3/87 102/3/87 104/3/87
f 104/3/87 106/3/87 119/3/87
f 119/3/87 106/3/87 108/3/87
f 108/3/87 110/3/87 120/3/87
f 110/3/87 112/3/87 119/3/87
f 112/3/87 114/3/87 120/3/87
f 114/3/87 116/3/87 119/3/87
f 120/3/86 119/3/86 116/3/86
f 119/3/86 120/3/86 114/3/86
f 112/3/86 120/3/86 119/3/86
f 110/3/86 119/3/86 120/3/86
f 118/3/86 111/3/86 109/3/86
f 109/3/86 107/3/86 117/3/86
f 117/3/86 107/3/86 105/3/86
f 105/3/86 103/3/86 118/3/86
f 103/3/86 101/3/86 117/3/86
f 101/3/86 115/3/86 118/3/86
f 115/3/86 113/3/86 117/3/86
f 117/3/86 118/3/86 115/3/86
f 118/3/86 117/3/86 101/3/86
f 103/3/86 117/3/86 118/3/86
f 105/3/86 118/3/86 117/3/86
f 101/3/96 128/3/96 115/3/96
f 127/3/97 111/3/97 113/3/97
f 128/3/98 113/3/98 115/3/98
f 109/3/99 126/3/99 125/3/99
f 107/3/100 125/3/100 124/3/100
f 107/3/101 123/3/101 105/3/101
f 105/3/102 122/3/102 103/3/102
f 103/3/103 121/3/103 101/3/103
f 129/3/104 128/3/104 121/3/104
f 127/3/105 134/3/105 126/3/105
f 128/3/106 135/3/106 127/3/106
f 126/3/107 133/3/107 125/3/107
f 125/3/108 132/3/108 124/3/108
f 123/3/109 132/3/109 131/3/109
f 122/3/110 131/3/110 130/3/110
f 121/3/111 130/3/111 129/3/111
f 137/3/112 136/3/112 129/3/112
f 135/3/113 142/3/113 134/3/113
f 136/3/114 143/3/114 135/3/114
f 134/3/115 141/3/115 133/3/115
f 133/3/116 140/3/116 132/3/116
f 131/3/117 140/3/117 139/3/117
f 130/3/118 139/3/118 138/3/118
f 129/3/119 138/3/119 137/3/119
f 137/3/120 138/3/120 104/3/120
f 138/3/121 139/3/121 106/3/121
f 139/3/122 140/3/122 108/3/122
f 141/3/123 110/3/123 108/3/123
f 142/3/124 112/3/124 110/3/124
f 144/3/125 116/3/125 114/3/125
f 143/3/126 114/3/126 112/3/126
f 102/3/127 116/3/127 144/3/127
f 120/3/86 104/3/86 119/3/86
f 119/3/86 108/3/86 120/3/86
f 117/3/86 113/3/86 118/3/86
f 118/3/86 109/3/86 117/3/86
f 101/3/96 121/3/96 128/3/96
f 127/3/97 126/3/97 111/3/97
f 128/3/98 127/3/98 113/3/98
f 109/3/99 111/3/99 126/3/99
f 107/3/100 109/3/100 125/3/100
f 107/3/101 124/3/101 123/3/101
f 105/3/102 123/3/102 122/3/102
f 103/3/103 122/3/103 121/3/103
f 129/3/128 136/3/128 128/3/128
f 127/3/129 135/3/129 134/3/129
f 128/3/130 136/3/130 135/3/130
f 126/3/131 134/3/131 133/3/131
f 125/3/132 133/3/132 132/3/132
f 123/3/133 124/3/133 132/3/133
f 122/3/134 123/3/134 131/3/134
f 121/3/135 122/3/135 130/3/135
f 137/3/136 144/3/136 136/3/136
f 135/3/137 143/3/137 142/3/137
f 136/3/138 144/3/138 143/3/138
f 134/3/139 142/3/139 141/3/139
f 133/3/140 141/3/140 140/3/140
f 131/3/141 132/3/141 140/3/141
f 130/3/142 131/3/142 139/3/142
f 129/3/143 130/3/143 138/3/143
o reed.002
v 0.687391 2.989470 -0.966075
v 1.156576 2.915436 -1.690093
v 0.723530 3.048767 -0.948719
v 1.192715 2.974733 -1.672737
v 0.715075 3.118712 -0.961350
v 1.184261 3.044678 -1.685368
v 0.666980 3.158332 -0.996569
v 1.136165 3.084298 -1.720587
v 0.607417 3.144419 -1.033745
v 1.076603 3.070385 -1.757763
v 0.557098 3.091183 -1.133777
v 1.040464 3.011089 -1.775118
v 0.570986 2.976289 -1.113029
v 1.048918 2.941144 -1.762488
v 0.649989 2.911206 -1.055177
v 1.097014 2.901523 -1.727269
v 0.647408 3.066964 -0.999909
v 0.647408 3.066964 -0.999909
v 1.116588 2.992906 -1.723928
v 1.116588 2.992906 -1.723928
v 1.156576 2.915436 -1.690093
v 1.184261 3.044678 -1.685368
v 1.192715 2.974733 -1.672737
v 1.192715 2.974733 -1.672737
v 1.076603 3.070385 -1.757763
v 1.076603 3.070385 -1.757763
v 1.040464 3.011089 -1.775118
v 1.040464 3.011089 -1.775118
v 1.048918 2.941144 -1.762488
v 1.048918 2.941144 -1.762488
v 1.136165 3.084298 -1.720587
v 1.136165 3.084298 -1.720587
v 1.053151 2.847590 -1.677311
v 1.097014 2.901523 -1.727269
v 1.116588 2.992906 -1.723928
v 1.116588 2.992906 -1.723928
v 1.116588 2.992906 -1.723928
v 1.116588 2.992906 -1.723928
v 1.116588 2.992906 -1.723928
v 1.116588 2.992906 -1.723928
v 0.579732 3.015178 -1.038470
v 0.627828 2.975557 -1.003251
v 0.571278 3.085123 -1.051101
v 0.747829 2.934060 -0.994111
v 0.807193 3.031463 -0.965601
v 1.150991 2.870444 -1.616244
v 1.210354 2.967847 -1.587735
v 0.793305 3.146357 -0.986349
v 1.196466 3.082741 -1.608483
v 0.616462 3.188586 -1.105267
v 1.019623 3.124969 -1.727401
v 0.960260 3.027567 -1.755910
v 0.974148 2.912673 -1.735162
v 0.714302 3.211439 -1.044201
v 1.117463 3.147824 -1.666335
v 1.097014 2.901523 -1.727269
vn 0.5418 -0.0855 -0.8361
vn -0.5418 0.0855 0.8361
vn -0.6719 0.5535 -0.4920
vn -0.8321 -0.1944 -0.5194
vn -0.5049 -0.8284 -0.2425
vn 0.1181 -0.9772 0.1765
vn 0.6719 -0.5535 0.4920
vn 0.5049 0.8284 0.2425
vn 0.8321 0.1944 0.5194
vn -0.1181 0.9772 -0.1765
vn 0.7377 0.5593 -0.3782
vn 0.9827 0.0895 -0.1620
vn -0.1169 0.3439 -0.9317
vn -0.8606 0.4613 0.2159
vn -0.2334 -0.2001 -0.9516
vn -0.9771 -0.0827 0.1961
vn 0.8624 -0.4722 -0.1825
vn 0.1469 -0.3593 0.9216
vn 0.2811 0.6594 -0.6972
vn 0.2672 0.2024 0.9421
vn -0.0028 -0.6663 -0.7457
vn -0.7386 -0.5502 0.3896
vn 0.4499 -0.7842 -0.4274
vn -0.4546 0.7755 0.4381
vn -0.2741 -0.6699 0.6899
vn 0.0136 0.6735 0.7391
vt 0.000000 0.000000
s 0
f 185/4/144 187/4/144 162/4/144
f 146/4/145 183/4/145 178/4/145
f 189/4/146 190/4/146 188/4/146
f 192/4/147 191/4/147 189/4/147
f 198/4/148 193/4/148 192/4/148
f 194/4/149 199/4/149 198/4/149
f 155/4/150 195/4/150 194/4/150
f 177/4/151 157/4/151 159/4/151
f 197/4/152 155/4/152 157/4/152
f 190/4/153 159/4/153 188/4/153
f 183/4/145 146/4/145 168/4/145
f 148/4/145 150/4/145 179/4/145
f 179/4/145 150/4/145 176/4/145
f 152/4/145 154/4/145 184/4/145
f 170/4/145 172/4/145 163/4/145
f 156/4/145 174/4/145 164/4/145
f 158/4/145 160/4/145 181/4/145
f 182/4/144 180/4/144 200/4/144
f 180/4/144 182/4/144 173/4/144
f 171/4/144 182/4/144 180/4/144
f 169/4/144 180/4/144 182/4/144
f 162/4/144 187/4/144 153/4/144
f 153/4/144 151/4/144 161/4/144
f 161/4/144 151/4/144 149/4/144
f 149/4/144 147/4/144 162/4/144
f 147/4/144 145/4/144 161/4/144
f 145/4/144 186/4/144 162/4/144
f 186/4/144 185/4/144 161/4/144
f 161/4/144 162/4/144 186/4/144
f 162/4/144 161/4/144 145/4/144
f 147/4/144 161/4/144 162/4/144
f 149/4/144 162/4/144 161/4/144
f 168/4/144 165/4/144 167/4/144
f 150/4/144 167/4/144 166/4/144
f 172/4/144 169/4/144 171/4/144
f 174/4/144 171/4/144 173/4/144
f 176/4/144 166/4/144 175/4/144
f 146/4/144 200/4/144 165/4/144
f 154/4/144 175/4/144 169/4/144
f 160/4/144 173/4/144 200/4/144
f 179/4/144 175/4/144 180/4/144
f 178/4/144 182/4/144 200/4/144
f 181/4/144 200/4/144 180/4/144
f 152/4/144 182/4/144 175/4/144
f 164/4/144 173/4/144 182/4/144
f 158/4/144 180/4/144 173/4/144
f 163/4/144 171/4/144 180/4/144
f 183/4/144 167/4/144 182/4/144
f 148/4/144 180/4/144 167/4/144
f 156/4/144 182/4/144 171/4/144
f 184/4/144 169/4/144 182/4/144
f 170/4/144 180/4/144 169/4/144
f 157/4/154 186/4/154 159/4/154
f 155/4/155 185/4/155 157/4/155
f 188/4/156 147/4/156 189/4/156
f 190/4/157 167/4/157 165/4/157
f 192/4/158 147/4/158 149/4/158
f 193/4/159 167/4/159 191/4/159
f 155/4/160 153/4/160 187/4/160
f 196/4/161 169/4/161 195/4/161
f 159/4/162 145/4/162 188/4/162
f 196/4/163 173/4/163 171/4/163
f 198/4/164 149/4/164 151/4/164
f 199/4/165 166/4/165 193/4/165
f 194/4/166 151/4/166 153/4/166
f 177/4/167 165/4/167 200/4/167
f 195/4/168 175/4/168 199/4/168
f 197/4/169 200/4/169 173/4/169
f 189/4/146 191/4/146 190/4/146
f 192/4/147 193/4/147 191/4/147
f 198/4/148 199/4/148 193/4/148
f 194/4/149 195/4/149 199/4/149
f 155/4/150 196/4/150 195/4/150
f 177/4/151 197/4/151 157/4/151
f 197/4/152 196/4/152 155/4/152
f 190/4/153 177/4/153 159/4/153
f 182/4/144 167/4/144 180/4/144
f 180/4/144 175/4/144 182/4/144
f 161/4/144 185/4/144 162/4/144
f 162/4/144 153/4/144 161/4/144
f 168/4/144 146/4/144 165/4/144
f 150/4/144 148/4/144 167/4/144
f 172/4/144 170/4/144 169/4/144
f 174/4/144 156/4/144 171/4/144
f 176/4/144 150/4/144 166/4/144
f 146/4/144 178/4/144 200/4/144
f 154/4/144 152/4/144 175/4/144
f 160/4/144 158/4/144 173/4/144
f 179/4/144 176/4/144 175/4/144
f 178/4/144 183/4/144 182/4/144
f 181/4/144 160/4/144 200/4/144
f 152/4/144 184/4/144 182/4/144
f 164/4/144 174/4/144 173/4/144
f 158/4/144 181/4/144 180/4/144
f 163/4/144 172/4/144 171/4/144
f 183/4/144 168/4/144 167/4/144
f 148/4/144 179/4/144 180/4/144
f 156/4/144 164/4/144 182/4/144
f 184/4/144 154/4/144 169/4/144
f 170/4/144 163/4/144 180/4/144
f 157/4/154 185/4/154 186/4/154
f 155/4/155 187/4/155 185/4/155
f 188/4/156 145/4/156 147/4/156
f 190/4/157 191/4/157 167/4/157
f 192/4/158 189/4/158 147/4/158
f 193/4/159 166/4/159 167/4/159
f 155/4/160 194/4/160 153/4/160
f 196/4/161 171/4/161 169/4/161
f 159/4/162 186/4/162 145/4/162
f 196/4/163 197/4/163 173/4/163
f 198/4/164 192/4/164 149/4/164
f 199/4/165 175/4/165 166/4/165
f 194/4/166 198/4/166 151/4/166
f 177/4/167 190/4/167 165/4/167
f 195/4/168 169/4/168 175/4/168
f 197/4/169 177/4/169 200/4/169
